<svg xmlns="http://www.w3.org/2000/svg" xmlns:xlink="http://www.w3.org/1999/xlink" width="66" zoomAndPan="magnify" viewBox="0 0 49.5 49.499998" height="66" preserveAspectRatio="xMidYMid meet" version="1.0"><defs><clipPath id="35be52ac41"><path d="M 0 0 L 49.003906 0 L 49.003906 49.003906 L 0 49.003906 Z M 0 0 " clip-rule="nonzero"/></clipPath><clipPath id="ab73e51e2b"><path d="M 24.503906 0 C 10.96875 0 0 10.96875 0 24.503906 C 0 38.035156 10.96875 49.003906 24.503906 49.003906 C 38.035156 49.003906 49.003906 38.035156 49.003906 24.503906 C 49.003906 10.96875 38.035156 0 24.503906 0 Z M 24.503906 0 " clip-rule="nonzero"/></clipPath><clipPath id="beb870e3bb"><path d="M 10 21 L 39 21 L 39 44.21875 L 10 44.21875 Z M 10 21 " clip-rule="nonzero"/></clipPath><clipPath id="afb5bb7db7"><path d="M 34 13 L 44.914062 13 L 44.914062 29 L 34 29 Z M 34 13 " clip-rule="nonzero"/></clipPath><clipPath id="fdad89c263"><path d="M 4.078125 13 L 15 13 L 15 29 L 4.078125 29 Z M 4.078125 13 " clip-rule="nonzero"/></clipPath></defs><g clip-path="url(#35be52ac41)"><g clip-path="url(#ab73e51e2b)"><path fill="#d496a7" d="M 0 0 L 49.003906 0 L 49.003906 49.003906 L 0 49.003906 Z M 0 0 " fill-opacity="1" fill-rule="nonzero"/></g></g><g clip-path="url(#beb870e3bb)"><path fill="#000000" d="M 18.566406 44.0625 C 18.25 44.0625 17.9375 44.0625 17.621094 44.011719 C 13.6875 43.589844 10.539062 40.378906 10.171875 36.382812 C 9.910156 33.644531 11.011719 30.910156 13.109375 29.121094 L 17.464844 24.542969 C 19.300781 22.597656 21.765625 21.546875 24.390625 21.546875 C 27.015625 21.546875 29.480469 22.597656 31.316406 24.542969 L 35.882812 29.332031 C 37.875 31.171875 38.871094 33.75 38.558594 36.488281 C 38.136719 40.433594 34.988281 43.589844 31.105469 44.011719 C 29.164062 44.21875 27.277344 43.800781 25.648438 42.746094 C 24.863281 42.222656 23.867188 42.222656 23.078125 42.746094 C 21.714844 43.589844 20.191406 44.0625 18.566406 44.0625 Z M 13.894531 29.859375 C 13.894531 29.910156 13.84375 29.910156 13.84375 29.910156 C 12.007812 31.488281 11.011719 33.855469 11.273438 36.277344 C 11.585938 39.75 14.316406 42.535156 17.777344 42.90625 C 19.457031 43.117188 21.136719 42.695312 22.554688 41.800781 C 23.65625 41.0625 25.125 41.0625 26.28125 41.800781 C 27.695312 42.695312 29.375 43.117188 31.054688 42.90625 C 34.464844 42.535156 37.246094 39.75 37.5625 36.328125 C 37.824219 33.960938 36.929688 31.648438 35.148438 30.015625 C 35.09375 30.015625 35.09375 29.964844 35.09375 29.910156 L 30.582031 25.175781 C 28.957031 23.492188 26.75 22.546875 24.390625 22.546875 C 22.027344 22.546875 19.824219 23.492188 18.199219 25.226562 Z M 13.894531 29.859375 " fill-opacity="1" fill-rule="nonzero"/></g><path fill="#000000" d="M 29.007812 20.703125 C 28.746094 20.703125 28.484375 20.652344 28.222656 20.597656 C 26.960938 20.230469 26.070312 19.074219 25.648438 17.285156 C 25.28125 15.652344 25.386719 13.601562 25.964844 11.601562 C 26.542969 9.601562 27.539062 7.867188 28.746094 6.65625 C 30.003906 5.394531 31.421875 4.867188 32.679688 5.238281 C 33.941406 5.605469 34.832031 6.761719 35.253906 8.550781 C 35.621094 10.183594 35.515625 12.234375 34.9375 14.234375 C 34.359375 16.230469 33.363281 17.96875 32.15625 19.179688 C 31.105469 20.175781 30.058594 20.703125 29.007812 20.703125 Z M 31.839844 6.183594 C 31.105469 6.183594 30.265625 6.605469 29.480469 7.394531 C 28.378906 8.445312 27.539062 10.078125 27.015625 11.917969 C 26.488281 13.757812 26.382812 15.546875 26.699219 17.074219 C 27.015625 18.441406 27.644531 19.335938 28.535156 19.597656 C 29.425781 19.863281 30.425781 19.441406 31.421875 18.441406 C 32.523438 17.390625 33.363281 15.757812 33.886719 13.917969 C 34.414062 12.074219 34.515625 10.285156 34.203125 8.761719 C 33.886719 7.394531 33.257812 6.5 32.367188 6.234375 C 32.15625 6.234375 32 6.183594 31.839844 6.183594 Z M 31.839844 6.183594 " fill-opacity="1" fill-rule="nonzero"/><g clip-path="url(#afb5bb7db7)"><path fill="#000000" d="M 38.296875 28.910156 C 38.03125 28.910156 37.769531 28.859375 37.507812 28.804688 C 36.25 28.4375 35.355469 27.28125 34.9375 25.492188 C 34.570312 23.859375 34.675781 21.808594 35.253906 19.808594 C 36.511719 15.496094 39.449219 12.707031 41.914062 13.445312 C 43.175781 13.8125 44.066406 14.96875 44.488281 16.757812 C 44.855469 18.390625 44.75 20.441406 44.171875 22.441406 C 43.59375 24.4375 42.597656 26.175781 41.390625 27.386719 C 40.445312 28.386719 39.34375 28.910156 38.296875 28.910156 Z M 41.128906 14.390625 C 39.34375 14.390625 37.195312 16.8125 36.25 20.125 C 35.722656 21.964844 35.621094 23.753906 35.933594 25.28125 C 36.25 26.648438 36.878906 27.542969 37.769531 27.804688 C 38.664062 28.070312 39.660156 27.648438 40.65625 26.648438 C 41.757812 25.597656 42.597656 23.964844 43.121094 22.125 C 43.648438 20.28125 43.753906 18.496094 43.4375 16.96875 C 43.121094 15.601562 42.492188 14.707031 41.601562 14.441406 C 41.496094 14.441406 41.285156 14.390625 41.128906 14.390625 Z M 41.128906 14.390625 " fill-opacity="1" fill-rule="nonzero"/></g><path fill="#000000" d="M 19.984375 20.703125 C 18.933594 20.703125 17.882812 20.175781 16.886719 19.179688 C 15.679688 17.96875 14.683594 16.230469 14.105469 14.234375 C 13.527344 12.234375 13.425781 10.234375 13.792969 8.550781 C 14.210938 6.761719 15.101562 5.605469 16.363281 5.238281 C 17.621094 4.867188 18.984375 5.394531 20.296875 6.65625 C 21.503906 7.867188 22.5 9.601562 23.078125 11.601562 C 23.65625 13.601562 23.761719 15.601562 23.394531 17.285156 C 22.972656 19.074219 22.082031 20.230469 20.824219 20.597656 C 20.507812 20.703125 20.246094 20.703125 19.984375 20.703125 Z M 17.148438 6.183594 C 16.992188 6.183594 16.78125 6.183594 16.625 6.234375 C 15.734375 6.5 15.101562 7.394531 14.789062 8.761719 C 14.472656 10.234375 14.578125 12.074219 15.101562 13.917969 C 15.628906 15.757812 16.519531 17.335938 17.570312 18.441406 C 18.566406 19.441406 19.617188 19.863281 20.457031 19.597656 C 21.347656 19.335938 21.976562 18.441406 22.292969 17.074219 C 22.605469 15.601562 22.5 13.757812 21.976562 11.917969 C 21.453125 10.078125 20.558594 8.5 19.511719 7.394531 C 18.722656 6.605469 17.9375 6.183594 17.148438 6.183594 Z M 17.148438 6.183594 " fill-opacity="1" fill-rule="nonzero"/><g clip-path="url(#fdad89c263)"><path fill="#000000" d="M 10.695312 28.910156 C 9.644531 28.910156 8.597656 28.386719 7.601562 27.386719 C 6.394531 26.175781 5.394531 24.4375 4.820312 22.441406 C 4.242188 20.441406 4.136719 18.441406 4.503906 16.757812 C 4.921875 14.96875 5.816406 13.8125 7.074219 13.445312 C 9.59375 12.707031 12.53125 15.496094 13.738281 19.808594 C 14.316406 21.808594 14.421875 23.808594 14.054688 25.492188 C 13.632812 27.28125 12.742188 28.4375 11.484375 28.804688 C 11.21875 28.859375 10.957031 28.910156 10.695312 28.910156 Z M 7.863281 14.390625 C 7.703125 14.390625 7.496094 14.390625 7.335938 14.441406 C 6.445312 14.707031 5.816406 15.601562 5.5 16.96875 C 5.1875 18.441406 5.289062 20.28125 5.816406 22.125 C 6.339844 23.964844 7.230469 25.542969 8.28125 26.648438 C 9.277344 27.648438 10.328125 28.070312 11.167969 27.804688 C 12.058594 27.542969 12.6875 26.648438 13.003906 25.28125 C 13.320312 23.808594 13.214844 21.964844 12.6875 20.125 C 11.796875 16.863281 9.644531 14.390625 7.863281 14.390625 Z M 7.863281 14.390625 " fill-opacity="1" fill-rule="nonzero"/></g></svg>