<svg xmlns="http://www.w3.org/2000/svg" xmlns:xlink="http://www.w3.org/1999/xlink" width="80" zoomAndPan="magnify" viewBox="0 0 60 60" height="80" preserveAspectRatio="xMidYMid meet" version="1.0"><defs><clipPath id="673f4d2940"><path d="M 30 0 C 13.429688 0 0 13.429688 0 30 C 0 46.570312 13.429688 60 30 60 C 46.570312 60 60 46.570312 60 30 C 60 13.429688 46.570312 0 30 0 Z M 30 0 " clip-rule="nonzero"/></clipPath><clipPath id="ca5a2622c9"><path d="M 9.683594 8.644531 L 50.183594 8.644531 L 50.183594 51.394531 L 9.683594 51.394531 Z M 9.683594 8.644531 " clip-rule="nonzero"/></clipPath></defs><g clip-path="url(#673f4d2940)"><rect x="-6" width="72" fill="#d496a7" y="-6" height="72" fill-opacity="1"/></g><path fill="#000000" d="M 29.933594 19.222656 C 25.460938 19.222656 21.835938 23.046875 21.835938 27.765625 C 21.835938 32.484375 25.460938 36.3125 29.933594 36.3125 C 34.410156 36.3125 38.035156 32.484375 38.035156 27.765625 C 38.035156 23.046875 34.410156 19.222656 29.933594 19.222656 " fill-opacity="1" fill-rule="nonzero"/><g clip-path="url(#ca5a2622c9)"><path fill="#000000" d="M 43.386719 44.765625 C 41.59375 40.367188 37.828125 37.617188 29.921875 37.617188 C 22.027344 37.617188 18.261719 40.359375 16.464844 44.746094 C 12.808594 41.023438 10.53125 35.800781 10.53125 30.019531 C 10.53125 18.714844 19.21875 9.550781 29.933594 9.550781 C 40.652344 9.550781 49.335938 18.714844 49.335938 30.019531 C 49.335938 35.8125 47.054688 41.042969 43.386719 44.765625 Z M 29.933594 8.65625 C 18.75 8.65625 9.683594 18.21875 9.683594 30.019531 C 9.683594 36.1875 12.164062 41.746094 16.132812 45.648438 C 19.746094 49.203125 24.601562 51.378906 29.933594 51.378906 C 35.261719 51.378906 40.105469 49.210938 43.722656 45.664062 C 47.699219 41.765625 50.1875 36.199219 50.1875 30.019531 C 50.1875 18.21875 41.121094 8.65625 29.933594 8.65625 " fill-opacity="1" fill-rule="nonzero"/></g></svg>